<?xml version="1.0" standalone="no"?>
<!DOCTYPE svg PUBLIC "-//W3C//DTD SVG 1.1//EN" "http://www.w3.org/Graphics/SVG/1.1/DTD/svg11.dtd" >
<svg xmlns="http://www.w3.org/2000/svg">
<metadata></metadata>
<defs>
<font id="kelvinizednormal" horiz-adv-x="2048" >
<font-face units-per-em="2048" ascent="1638" descent="-410" />
<missing-glyph horiz-adv-x="1000" />
<glyph />
<glyph />
<glyph unicode="&#xd;" horiz-adv-x="1000" />
<glyph unicode=" "  horiz-adv-x="1000" />
<glyph unicode="&#x09;" horiz-adv-x="1000" />
<glyph unicode="&#xa0;" horiz-adv-x="1000" />
<glyph unicode="!" horiz-adv-x="1302" d="M0 296q0 142 160 225q138 71 326 75q158 3 293 -52q176 -71 176 -206q-1 -143 -163 -226q-140 -72 -328 -74q-276 -4 -413 132q-51 50 -51 126zM375 761l208 1072l1029 40l-788 -1112h-449z" />
<glyph unicode="&#x22;" horiz-adv-x="1706" d="M131 1228l65 770h630l-286 -770h-409zM778 1228l356 770h630l-578 -770h-408z" />
<glyph unicode="#" horiz-adv-x="2675" d="M-64 1070l107 191h291l139 247h-322l107 191h322l186 330l732 15l-196 -345h248l90 159l732 16l-98 -175h308l-108 -191h-308l-140 -247h340l-107 -191h-340l-195 -345l-730 -15l202 360h-248l-98 -174l-731 -16l107 190h-290zM1056 1261h248l139 247h-247z" />
<glyph unicode="$" horiz-adv-x="2387" d="M-110 88l122 218l972 -15q160 -1 240 145l46 82q26 46 25 84q0 26 -12 48q-28 54 -109 54h-174q-206 0 -291 8q-175 18 -268 80q-113 74 -113 206q0 86 56 178q125 210 382 302q140 50 330 68q128 12 340 14l147 313h468l-179 -321q250 -20 356 -75q144 -75 159 -212 q1 -15 1 -27q0 -100 -88 -178q-107 -95 -287 -95q-157 0 -255 81q-92 76 -93 192q0 24 6 56q7 34 17 54q-56 24 -125 25q-177 4 -269 -159l-102 -180q-20 -36 -20 -66q2 -52 64 -60q25 -2 71 -2h242q273 0 423 -48q250 -78 244 -296q-8 -250 -298 -370q-250 -104 -686 -104 h-174l-214 -384h-276l180 384h-858z" />
<glyph unicode="%" horiz-adv-x="2244" d="M0 1774q0 142 160 224q138 71 326 75q157 3 293 -51q176 -70 176 -207q-1 -143 -163 -226q-138 -71 -328 -73q-158 -2 -290 52q-174 71 -174 206zM326 1786q0 -56 56 -86q42 -22 92 -22q62 2 105 32q49 36 49 94q0 57 -55 86q-43 24 -93 22q-60 -2 -103 -32 q-51 -34 -51 -94zM414 943l844 930h418l-928 -930h-334zM1183 1084q0 142 160 224q135 70 325 74q158 4 294 -50q176 -70 176 -207q0 -141 -162 -225q-140 -72 -330 -74q-156 -2 -289 52q-174 72 -174 206zM1510 1096q0 -56 54 -86q41 -22 92 -22q60 0 104 30q52 36 52 96 q0 56 -56 86q-43 24 -93 22q-60 -2 -103 -32q-50 -35 -50 -94z" />
<glyph unicode="&#x26;" horiz-adv-x="2606" d="M0 437q0 54 18 114q46 148 186 261q124 101 282 143q-8 36 -4 76q4 43 18 84q80 244 388 349q131 44 325 66q160 18 375 18q220 0 358 -16q171 -20 268 -65q108 -50 146 -142q18 -47 18 -99t-18 -111q-56 -171 -269 -249q-156 -56 -380 -57h-93l228 -207q14 36 20 88h514 q-34 -228 -236 -356q25 -20 54 -30q32 -12 66 -11h260l-114 -205h-874l-31 29q-331 -67 -675 -63q-404 4 -618 95q-135 57 -185 165q-27 58 -27 123zM880 389q0 -29 14 -53q31 -55 112 -57q150 -4 296 24l-326 301l-70 -130q-26 -47 -26 -85zM1283 1129q-1 -31 17 -57 q34 -51 112 -52q168 -2 233 148q14 32 14 60q0 32 -19 58q-34 48 -108 48q-160 2 -230 -137q-18 -36 -19 -68z" />
<glyph unicode="'" horiz-adv-x="1056" d="M0 1792q0 142 160 224q138 71 326 75q156 3 288 -51q72 -30 124 -80q58 -56 58 -146q0 -106 -70 -201q-146 -199 -423 -317q-125 -54 -217 -70l-86 168q58 24 114 64q52 36 98 82q-144 14 -246 70q-126 69 -126 182z" />
<glyph unicode="(" horiz-adv-x="1327" d="M5 10q-1 146 71 329q108 275 312 611q236 390 469 626q129 132 259 202q122 66 304 112l489 125l60 -173q-153 -68 -253 -248l-862 -1534q-48 -88 -48 -164q0 -104 80 -162l-160 -212l-534 174q-158 52 -182 242q-4 34 -5 72z" />
<glyph unicode=")" horiz-adv-x="1787" d="M-256 -300q210 48 338 274l862 1534q56 99 48 184q-6 82 -66 132l130 178l418 -210q143 -72 187 -248q17 -70 17 -146q0 -195 -132 -503q-124 -290 -306 -576q-160 -251 -284 -389q-123 -135 -314 -219q-102 -45 -242 -78l-564 -133z" />
<glyph unicode="*" horiz-adv-x="2050" d="M0 1608l704 73l452 479l150 -479l659 -73l-611 -370l-44 -523l-528 250l-686 -250l284 523z" />
<glyph unicode="+" horiz-adv-x="2000" d="M0 747l115 205h540l251 448h707l-251 -448h544l-115 -205h-544l-269 -479h-706l268 479h-540z" />
<glyph unicode="," horiz-adv-x="1099" d="M0 296q0 142 160 225q138 71 326 75q156 3 288 -52q72 -30 124 -80q58 -56 58 -146q0 -106 -70 -200q-144 -198 -423 -318q-125 -53 -217 -69l-86 168q116 51 212 145q-146 16 -246 70q-126 68 -126 182z" />
<glyph unicode="-" horiz-adv-x="2000" d="M0 747l115 205h1791l-115 -205h-1791z" />
<glyph unicode="." horiz-adv-x="1074" d="M0 296q0 142 160 225q138 71 326 75q158 3 293 -52q176 -71 176 -206q-1 -143 -163 -226q-140 -72 -328 -74q-276 -4 -413 132q-51 50 -51 126z" />
<glyph unicode="/" horiz-adv-x="1049" d="M-326 -296l1970 2169h468l-2162 -2169h-276z" />
<glyph unicode="0" horiz-adv-x="2347" d="M0 470q1 158 120 372q113 204 247 347q274 291 719 363q202 33 504 33q244 0 422 -42q216 -51 319 -163q89 -98 89 -244q0 -126 -67 -285q-196 -463 -583 -651q-186 -90 -441 -128q-201 -30 -489 -31q-254 -1 -431 39q-410 92 -409 390zM804 364q0 -28 14 -52 q32 -54 112 -54q82 -1 142 37q57 37 97 109l437 778q26 46 26 85q0 27 -14 51q-31 54 -112 54q-154 2 -238 -146l-438 -778q-26 -46 -26 -84z" />
<glyph unicode="1" horiz-adv-x="1444" d="M-2 307q0 57 35 119l399 710h-310l115 204q255 22 457 58q262 48 424 124h424l-628 -1119q-26 -47 -8 -79t64 -31h324l-114 -205h-914q-172 0 -238 113q-30 52 -30 106z" />
<glyph unicode="2" horiz-adv-x="2800" d="M0 88l115 205q190 338 439 443q164 70 516 70h360q90 0 144 14q108 30 157 118l135 244q28 52 29 90q0 74 -103 94q-49 10 -88 12q-48 4 -98 -4q-60 -8 -83 -32q14 -40 14 -86q1 -116 -93 -194q-98 -82 -260 -82q-184 0 -288 91q-84 74 -84 178q0 12 1 26q21 211 319 281 q120 28 302 41q166 11 382 8q218 -3 369 -27q249 -40 387 -133q176 -120 176 -288q0 -30 -6 -62q-42 -231 -278 -371q-230 -136 -684 -136h-489q-52 0 -105 -36q-56 -38 -90 -104l-78 -155h1684l-114 -205h-2588z" />
<glyph unicode="3" horiz-adv-x="2322" d="M0 88l122 218l844 -12q82 0 141 38q56 36 97 109l100 177q26 46 25 84q0 28 -14 52q-31 54 -112 54h-275l114 205h326q84 0 154 55q64 50 90 122q28 80 0 122q-22 32 -88 46q-60 14 -188 9q-136 -6 -186 -28q20 -47 20 -89q0 -30 -9 -58q-24 -68 -83 -114 q-114 -92 -275 -92q-21 0 -45 2q-146 12 -224 92q-58 60 -58 138q0 26 6 55q44 185 381 257q233 49 581 51q194 1 328 -11q241 -21 385 -84q209 -91 203 -272q-6 -194 -180 -322q76 -88 64 -228q-28 -288 -333 -440q-272 -136 -699 -136h-308h-904z" />
<glyph unicode="4" horiz-adv-x="2406" d="M0 807l115 205l909 605h636l-1126 -605h798l286 510h894l-286 -510h384l-114 -205h-384l-227 -404q-26 -47 -9 -79q16 -32 64 -31h325l-115 -205h-914q-171 0 -237 113q-30 51 -30 105q1 58 35 120l212 381h-1216z" />
<glyph unicode="5" horiz-adv-x="2348" d="M0 88l124 221l902 -7q66 0 111 33q37 29 77 99l110 190q40 68 22 126q-18 57 -78 57h-1108l400 715h1908l-114 -206h-1014l-171 -304h435q138 0 266 -40q242 -74 312 -240q28 -64 25 -140q-8 -198 -182 -328q-154 -115 -450 -154q-168 -22 -483 -22h-1092z" />
<glyph unicode="6" horiz-adv-x="2219" d="M0 531q0 140 84 306q208 413 568 591q150 74 392 116q226 38 478 42q286 4 464 -36q298 -68 308 -258q6 -118 -88 -204q-104 -94 -280 -94q-136 0 -231 66q-108 74 -108 204q1 50 17 88q-28 28 -113 24q-173 -8 -252 -150l-118 -214h410q135 0 265 -39q241 -75 313 -241 q29 -64 25 -140q-9 -208 -185 -338t-523 -164q-144 -14 -283 -14h-239q-330 0 -466 25q-272 51 -380 223q-58 90 -58 207zM800 350q22 -62 110 -66q85 -2 138 33q48 33 90 107l113 200q27 47 27 86q0 26 -12 48q-28 54 -110 53h-148l-186 -329q-42 -74 -22 -132z" />
<glyph unicode="7" horiz-adv-x="1881" d="M0 88l1608 1228h-1150l115 206h2161l-99 -178l-1645 -1256h-990z" />
<glyph unicode="8" horiz-adv-x="2292" d="M0 437q0 54 18 114q46 148 186 261q124 101 282 143q-8 36 -4 76q4 43 18 84q80 244 388 349q131 44 325 66q160 18 375 18q220 0 358 -16q171 -20 268 -65q164 -79 164 -241q0 -118 -81 -235q-42 -61 -98 -106q68 -63 86 -147q17 -86 -15 -187q-43 -135 -158 -239 q-210 -191 -650 -236q-186 -20 -444 -20q-286 0 -465 18q-216 22 -341 75q-136 59 -185 165q-27 58 -27 123zM880 388q0 -28 14 -52q31 -56 112 -57q82 1 142 39q57 38 97 112l99 183q26 47 26 87q0 28 -14 52q-31 56 -112 57q-155 1 -238 -151l-100 -184q-26 -48 -26 -86z M1283 1129q-1 -31 17 -57q34 -51 112 -52q168 -2 233 148q14 32 14 60q0 32 -19 58q-34 48 -108 48q-160 2 -230 -137q-18 -36 -19 -68z" />
<glyph unicode="9" horiz-adv-x="2248" d="M0 88l124 221l548 -11q165 -4 292 22q180 35 227 119l81 145q-316 -2 -466 11q-232 18 -343 76q-209 110 -209 294q0 51 17 107q47 148 183 260q122 98 278 141q300 81 830 75l198 -4q254 -4 444 -60q218 -66 262 -227q43 -155 -103 -427q-60 -112 -147 -223 q-180 -229 -386 -343q-274 -152 -770 -170q-160 -6 -346 -6h-714zM1111 910q-1 -28 13 -52q30 -56 112 -57q158 -1 240 151l98 182q26 48 26 87q0 28 -14 53q-32 56 -112 56q-82 0 -142 -38q-54 -36 -96 -112l-100 -184q-26 -48 -25 -86z" />
<glyph unicode=":" horiz-adv-x="1174" d="M0 296q0 142 160 225q138 71 326 75q158 3 293 -52q176 -71 176 -206q-1 -143 -163 -226q-140 -72 -328 -74q-276 -4 -413 132q-51 50 -51 126zM396 988q0 142 160 225q136 70 326 74q159 3 293 -51q177 -70 177 -206q0 -142 -163 -226q-139 -70 -329 -74 q-276 -4 -412 132q-52 50 -52 126z" />
<glyph unicode=";" horiz-adv-x="1184" d="M0 296q0 142 160 225q138 71 326 75q156 3 288 -52q72 -30 124 -80q58 -56 58 -146q0 -106 -70 -200q-144 -198 -423 -318q-125 -53 -217 -69l-86 168q116 51 212 145q-146 16 -246 70q-126 68 -126 182zM396 988q0 142 160 225q136 70 326 74q159 3 293 -51 q177 -70 177 -206q0 -142 -163 -226q-139 -70 -329 -74q-276 -4 -412 132q-52 50 -52 126z" />
<glyph unicode="&#x3c;" horiz-adv-x="1655" d="M0 747l115 205l1758 596l-167 -300l-1244 -420l839 -302l-115 -204z" />
<glyph unicode="=" horiz-adv-x="2129" d="M0 529l115 205h1791l-115 -205h-1791zM232 943l114 205h1792l-116 -205h-1790z" />
<glyph unicode="&#x3e;" horiz-adv-x="1873" d="M0 314l129 236l1301 339l-866 437l118 217l1188 -590l-104 -197z" />
<glyph unicode="?" horiz-adv-x="1704" d="M0 1440q0 14 1 28q10 124 113 214q90 78 224 114q212 56 656 64q374 6 640 -80q250 -80 302 -272q14 -52 15 -108q-1 -66 -21 -138q-58 -202 -252 -299q-162 -83 -394 -79h-114q-154 0 -241 -46q-48 -26 -58 -78h-471q12 129 84 215q76 91 200 111q56 4 168 23 q88 23 136 113l86 161q30 56 31 102q0 44 -27 77q-47 58 -155 67q-55 4 -113 -9q-70 -16 -98 -49q14 -50 14 -98q-1 -138 -94 -236q-100 -106 -259 -107q-184 0 -288 105q-85 85 -85 205zM34 296q0 141 160 225q137 71 326 75q158 3 293 -52q176 -71 176 -206 q-1 -143 -163 -226q-140 -72 -328 -74q-276 -4 -413 132q-51 50 -51 126z" />
<glyph unicode="@" horiz-adv-x="2835" d="M5 488q19 200 103 393q126 287 264 461q142 180 321 272q227 116 579 140q154 10 312 7q162 -3 310 -3q316 0 540 -38q338 -58 407 -198q50 -102 59 -252q10 -151 -30 -290q-195 -688 -731 -688h-766l-47 72q-122 -92 -313 -94q-175 -2 -271 78q-54 46 -76 124 q-24 78 4 204q62 288 305 446q213 138 479 138q150 0 245 -66l24 20l24 20l529 14l-366 -640q-24 -42 -15 -72q8 -28 43 -28h46q82 0 162 82q90 92 156 234q64 139 81 276q8 73 2 133q-7 64 -34 110q-60 102 -219 142q-110 28 -316 30q-114 1 -269 1q-123 0 -226 -13 q-217 -27 -357 -141q-101 -82 -198.5 -223t-165.5 -303q-74 -176 -82 -325q-18 -293 204 -377q110 -42 302 -42h1501l-136 -242h-1437q-250 0 -298 2q-170 6 -294 38q-283 70 -339 302q-30 128 -16 296zM1167 513q12 -35 53 -35q40 0 74 24q32 24 58 70l210 370q28 50 16 86 q-12 35 -52 35q-80 1 -133 -93l-209 -370q-28 -50 -17 -87z" />
<glyph unicode="A" horiz-adv-x="2535" d="M0 88l1466 1434h712l86 -1075q12 -154 168 -154h179l-115 -205h-1027l-35 441h-581l-410 -441h-443zM1043 734h375l-29 372z" />
<glyph unicode="B" horiz-adv-x="2437" d="M0 88l804 1434h1246q236 0 373 -70q168 -85 168 -269q0 -16 -1 -33q-6 -78 -48 -144q-40 -64 -108 -114q65 -77 65 -189q0 -19 -2 -39q-28 -288 -333 -440q-271 -136 -698 -136h-1466zM1012 294h207q81 0 141 38q56 36 98 109l98 177q26 46 26 85q0 28 -13 51 q-31 54 -113 54h-156zM1416 1013h206q161 0 231 134q19 36 19 66q0 29 -18 55q-35 50 -111 50h-156z" />
<glyph unicode="C" horiz-adv-x="1931" d="M0 531q0 140 84 306q208 411 568 591q148 74 392 116q226 38 478 42h62q256 0 396 -30q294 -66 314 -272q2 -12 2 -24q0 -104 -88 -184q-106 -96 -282 -96q-136 0 -232 68q-106 76 -107 208q0 20 4.5 47t12.5 49q-24 24 -93 24h-20q-172 -8 -252 -150l-411 -732 q-24 -44 -24 -85q0 -21 6 -41q21 -70 115 -70h5l829 11l-124 -221h-993q-436 0 -584 236q-58 90 -58 207z" />
<glyph unicode="D" horiz-adv-x="2339" d="M0 88l804 1434h1246q208 0 349 -46q183 -58 249 -190q32 -64 32 -143q0 -54 -15 -113q-71 -288 -299 -562q-102 -122 -182 -179q-276 -201 -760 -201h-1424zM1014 294h206q156 0 239 147l386 688q26 47 26 85q1 27 -13 50q-31 54 -113 54h-157z" />
<glyph unicode="E" horiz-adv-x="2413" d="M1 282q-1 11 -1 21q0 64 36 130l610 1089h1956l-114 -206h-1062l-172 -304h583l-115 -205h-582l-228 -409q-13 -24 -13 -45q0 -15 7 -28q18 -32 62 -32h1490l-115 -205h-2057q-154 0 -230 78q-49 50 -55 116z" />
<glyph unicode="F" horiz-adv-x="2156" d="M0 88l804 1434h2052l-115 -206h-1159l-170 -304h620l-114 -205h-621l-403 -719h-894z" />
<glyph unicode="G" horiz-adv-x="2151" d="M120 842q113 204 247 347q133 143 293 227q182 96 432 140q112 20 238 28q128 8 238 8q74 0 222 -6q133 -5 252 -33q292 -69 312 -269q2 -12 2 -24q0 -104 -92 -184q-110 -96 -294 -96q-140 0 -239 66q-113 76 -113 210q0 48 17 96q-14 14 -49 19q-25 3 -57 3h-16 q-163 -4 -245 -148l-438 -778q-26 -46 -26 -84q0 -28 14 -52q32 -54 112 -54h4q80 0 138 37q57 37 97 109l217 386l876 20l-314 -560q-126 -24 -400 -96q-258 -68 -401 -92q-123 -21 -283 -21q-262 1 -443 39q-421 90 -421 389q0 157 120 373z" />
<glyph unicode="H" horiz-adv-x="2658" d="M0 88l804 1434h894l-286 -510h362l286 510h894l-626 -1119q-15 -26 -16 -48q-2 -17 6 -31q16 -31 62 -31h3h325l-116 -205h-910q-171 0 -239 114q-31 52 -31 106q0 58 34 119l214 380h-363l-403 -719h-894z" />
<glyph unicode="I" horiz-adv-x="1288" d="M-2 307q0 57 35 119l499 890h-309l115 206h1204l-628 -1119q-15 -28 -15 -50q0 -16 7 -29q16 -31 61 -31h3h324l-114 -205h-914q-172 0 -238 113q-30 52 -30 106z" />
<glyph unicode="J" horiz-adv-x="2214" d="M0 88l124 221l848 -16h2q140 0 202 111l624 1118h895l-638 -1137q-84 -149 -197 -219q-124 -78 -304 -78h-1556z" />
<glyph unicode="K" horiz-adv-x="2640" d="M0 88l804 1434h894l-405 -722l1243 722h542l-1156 -617l326 -535q47 -77 163 -77h187l-114 -205h-994l-305 518l-291 -518h-894z" />
<glyph unicode="L" horiz-adv-x="2377" d="M-2 307q0 57 34 119l612 1096h894l-627 -1119q-16 -28 -16 -51q0 -15 7 -28q16 -31 61 -31h3h1421l-124 -205h-1997q-172 0 -238 113q-30 52 -30 106z" />
<glyph unicode="M" horiz-adv-x="4060" d="M0 88l1338 1434h660l158 -934l798 934h675l109 -1120q10 -109 162 -109h178l-114 -205h-1024l-98 886l-770 -886h-704l-150 907l-728 -907h-490z" />
<glyph unicode="N" horiz-adv-x="2747" d="M0 88l878 1434h768l557 -1078l515 1078h468l-900 -1434h-793l-531 1028l-527 -1028h-435z" />
<glyph unicode="O" horiz-adv-x="2355" d="M120 842q113 204 247 347q274 291 719 363q202 33 504 33q244 0 422 -42q216 -51 319 -163q89 -98 89 -244q0 -126 -67 -285q-196 -463 -583 -651q-186 -90 -441 -128q-201 -30 -489 -31h-12q-246 0 -419 39q-409 92 -409 389q0 157 120 373zM804 364q0 -28 14 -52 q32 -54 112 -54h4q79 0 138 37q57 37 97 109l437 778q26 46 26 85q0 27 -14 51q-31 54 -112 54h-4q-151 0 -234 -146l-438 -778q-26 -46 -26 -84z" />
<glyph unicode="P" horiz-adv-x="2465" d="M0 88l804 1434h1348q209 0 386 -82q224 -103 224 -289q0 -290 -328 -464q-298 -158 -722 -158h-570l-248 -441h-894zM1258 735h208q156 0 238 147l132 236q26 46 26 84q0 28 -14 51q-32 55 -112 55h-157z" />
<glyph unicode="Q" horiz-adv-x="2198" d="M120 842q113 204 247 347q274 291 719 363q202 33 504 33q244 0 422 -42q216 -51 319 -163q89 -98 89 -244q0 -126 -67 -285q-195 -463 -583 -651q-196 -96 -468 -132q-48 -6 -72 -19q-38 -20 -43 -63q-1 -5 -1 -10q0 -56 72 -56h217l-115 -205h-495q-179 0 -237 111 q-29 53 -29 106v4q1 56 31 112q-384 29 -535 181q-95 96 -95 238q0 159 120 375zM804 364q0 -28 14 -52q32 -54 112 -54h4q80 0 138 37q57 37 97 109l437 778q26 46 26 85q0 27 -14 51q-31 54 -112 54h-4q-151 0 -234 -146l-438 -778q-26 -46 -26 -84z" />
<glyph unicode="R" horiz-adv-x="2644" d="M0 88l804 1434h1348q209 0 386 -82q224 -103 224 -289q0 -204 -172 -357q-156 -139 -420 -208l132 -216q46 -77 162 -77h188l-115 -205h-994l-259 441h-142l-248 -441h-894zM1258 735h208q80 1 142 39q56 36 96 108l132 236q26 46 26 84q0 28 -14 51q-32 55 -112 55h-157 z" />
<glyph unicode="S" horiz-adv-x="2372" d="M0 88l122 218l972 -15h2q158 0 239 145l45 82q26 46 26 84q0 26 -12 48q-28 54 -110 54h-173q-205 0 -291 8q-176 18 -268 80q-112 74 -113 205q0 87 55 179q66 110 168 188q92 70 214 114q162 58 404 74q102 7 208 8h200q229 0 373 -16q186 -20 278 -67 q144 -74 159 -212q2 -13 2 -26q0 -102 -88 -179q-108 -95 -288 -95q-138 0 -236 66q-111 76 -112 207q0 22 6 56t16 54q-56 24 -124 25h-8q-172 0 -262 -159l-102 -180q-20 -36 -20 -66q2 -52 66 -60q24 -2 70 -2h242q274 0 423 -48q243 -76 243 -286v-10q-8 -249 -298 -370 q-249 -104 -685 -104h-1343z" />
<glyph unicode="T" horiz-adv-x="1734" d="M0 1316l115 206h2520l-115 -206h-1045l-512 -913q-16 -28 -16 -51q0 -15 7 -28q16 -31 61 -31h3h324l-114 -205h-794q-170 0 -238 113q-30 51 -30 105q0 58 34 120l499 890h-699z" />
<glyph unicode="U" horiz-adv-x="2230" d="M0 472q6 181 146 430l346 620h894l-528 -939q-44 -77 -44 -139q0 -68 52 -118q92 -87 294 -87q438 0 602 325l485 958h468l-405 -660q-146 -236 -239 -362q-123 -162 -241 -254q-152 -116 -364 -166q-202 -48 -520 -52h-67q-263 0 -429 28q-240 41 -350 149 q-100 97 -100 250v17z" />
<glyph unicode="V" horiz-adv-x="1651" d="M0 1502l842 20l86 -1017l923 1017h443l-1468 -1434h-712z" />
<glyph unicode="W" horiz-adv-x="3146" d="M0 1502l824 20l79 -972l755 972h748l70 -916l810 916h490l-1467 -1434h-613l-74 911l-794 -911h-716z" />
<glyph unicode="X" horiz-adv-x="2657" d="M0 88l1118 632l-464 802h892l245 -422l745 422h542l-1172 -619l310 -533q45 -77 162 -77h188l-115 -205h-967l-263 454l-859 -454h-362z" />
<glyph unicode="Y" horiz-adv-x="2051" d="M0 1522h892l251 -432l762 432h541l-1158 -612l-284 -507q-16 -29 -16 -52q0 -15 6 -27q16 -31 62 -31h3h324l-115 -205h-794q-171 0 -238 113q-30 51 -30 105q0 58 34 120l194 346z" />
<glyph unicode="Z" horiz-adv-x="2788" d="M0 88l115 205l1516 1023h-943l116 206h2137l-115 -206l-1516 -1023h1292l-116 -205h-2486z" />
<glyph unicode="[" horiz-adv-x="1390" d="M-2 -78q0 58 35 120l885 1575q156 275 542 275h838l-114 -204h-348q-102 0 -142 -72l-898 -1598q-26 -46 -9 -78t65 -32h324l-115 -204h-795q-172 0 -238 113q-30 51 -30 105z" />
<glyph unicode="\" horiz-adv-x="1024" d="M-128 1873h395l898 -2169h-221z" />
<glyph unicode="]" horiz-adv-x="1529" d="M-390 -296l115 204h333q54 0 96 27t70 75l880 1562q30 54 8 88q-18 28 -61 28h-324l115 204h796q140 0 218 -90q38 -44 45 -112q6 -66 -43 -154l-858 -1524q-86 -152 -214 -222q-158 -86 -432 -86h-744z" />
<glyph unicode="^" horiz-adv-x="1689" d="M0 1445l160 285q387 62 720 317h183q220 -264 546 -317l-160 -285q-355 97 -559 325q-396 -248 -890 -325z" />
<glyph unicode="_" horiz-adv-x="2468" d="M-350 -285l116 205h2992l-114 -205h-2994z" />
<glyph unicode="`" horiz-adv-x="1048" d="M0 1761q0 36 8 73q31 136 199 206q130 54 281 51q192 -5 329 -75q162 -84 139 -224q-18 -114 -156 -182q-111 -56 -258 -70q35 -44 84.5 -82.5t103.5 -63.5l-116 -168q-220 40 -419 203q-98 81 -156 184q-39 71 -39 148z" />
<glyph unicode="a" horiz-adv-x="2217" d="M0 514q0 308 353 491q300 157 686 157q212 0 354 -74l31 22l30 22l758 16l-418 -745q-12 -21 -14 -39q-4 -22 5 -40q16 -31 62 -31h3h218l-116 -205h-862l-78 80q-156 -102 -422 -105h-11q-237 0 -385 86q-194 115 -194 365zM764 333q22 -39 80 -39t101 26q40 26 69 78 q2 4 58 102l172 308q18 32 18 59q0 20 -10 37q-22 39 -80 39h-2q-110 0 -166 -103q-20 -34 -58 -104l-173 -307q-18 -33 -18 -60q0 -19 9 -36z" />
<glyph unicode="b" horiz-adv-x="2279" d="M0 88l794 1416l786 18l-218 -390q103 28 256 30h11q238 0 386 -86q193 -112 193 -364q-2 -310 -357 -500q-309 -164 -691 -164q-216 0 -358 76l-10 -18l-10 -18h-782zM956 320q22 -38 80 -38q110 0 169 104l57 102l116 206q28 48 55 96q19 40 19 69q0 19 -8 33 q-22 38 -80 39q-112 0 -170 -104q-20 -35 -57 -103l-173 -307q-18 -33 -18 -60q0 -20 10 -37z" />
<glyph unicode="c" horiz-adv-x="1786" d="M0 518q0 315 382 517q334 176 728 176h14q258 0 400 -37q272 -70 272 -267q0 -121 -82 -207q-90 -94 -237 -94q-124 0 -203 77t-80 200q0 49 14 95q-10 11 -31 17.5t-43 6.5q-112 0 -178 -116l-254 -452q-18 -33 -18 -61q0 -19 8 -36q22 -43 85 -43l831 15l-124 -221 h-846q-254 0 -428 98q-210 116 -210 332z" />
<glyph unicode="d" horiz-adv-x="2207" d="M0 514q0 308 353 491q300 157 686 157q215 0 361 -78l236 420l786 18l-628 -1119q-16 -28 -16 -51q0 -15 7 -28q16 -31 62 -31h3h218l-116 -205h-864l-76 80q-156 -102 -422 -105h-11q-237 0 -385 86q-194 115 -194 365zM764 333q22 -39 80 -39t101 26q40 26 69 78 q2 4 58 102l172 308q18 32 18 59q0 20 -10 37q-22 39 -80 39h-2q-110 0 -166 -103q-20 -34 -58 -104l-173 -307q-18 -33 -18 -60q0 -19 9 -36z" />
<glyph unicode="e" horiz-adv-x="1740" d="M0 518q0 314 376 506q320 164 720 164q298 0 486 -82q243 -108 247 -341v-6q0 -55 -19 -112q-16 -50 -54 -118h-1000l-54 -95q-18 -33 -18 -61q0 -19 8 -36q22 -43 85 -43l831 15l-124 -221h-846q-254 0 -428 98q-210 116 -210 332zM870 734h270l28 48l26 50q19 36 19 64 q0 20 -9 36q-23 40 -84 40h-2q-114 0 -175 -108z" />
<glyph unicode="f" horiz-adv-x="1915" d="M0 88l479 855h-321l115 205h321l259 460q153 14 411 72q263 59 399 74q97 10 219 10q278 -2 420 -122q76 -66 76 -183q0 -121 -82 -207q-90 -94 -236 -94q-124 0 -204 76.5t-80 200.5q0 47 14 95q-18 22 -74 23q-56 0 -104 -33q-44 -30 -74 -82l-163 -290h306l-115 -205 h-306l-478 -855h-782z" />
<glyph unicode="g" horiz-adv-x="2066" d="M-122 -285l124 221l722 -16h9q70 0 119 28q45 26 76 82l18 31l17 32q-55 -15 -119 -23q-60 -7 -135 -7h-11q-239 0 -386 86q-193 114 -193 360v5q2 309 353 491q301 157 686 157q214 0 361 -78l55 48l757 16l-637 -1137q-166 -296 -502 -296h-1314zM884 333 q22 -39 80 -39t100 26q36 24 72 82q26 49 54 98l173 308q19 32 19 59q0 20 -10 37q-22 39 -80 39h-2q-111 0 -168 -103q-20 -34 -57 -104l-173 -307q-18 -32 -18 -59q0 -20 10 -37z" />
<glyph unicode="h" horiz-adv-x="2311" d="M0 88l794 1416l786 18l-229 -409q173 64 375 65h8q266 0 393 -134q71 -74 71 -181q0 -88 -60 -195l-149 -265q-16 -28 -16 -51q0 -15 7 -28q16 -31 62 -31h3h217l-114 -205h-688q-200 0 -262 88q-26 36 -26 85q0 69 54 165l214 381q10 17 10 33q0 21 -16 40 q-26 32 -72 32q-118 0 -178 -106l-2 -3l-2 -4l-398 -711h-782z" />
<glyph unicode="i" horiz-adv-x="1202" d="M-2 306q0 58 35 120l395 705l785 17l-417 -745q-18 -32 -16 -58q2 -11 7 -21q16 -31 62 -31h3h216l-114 -205h-688q-172 0 -238 113q-30 51 -30 105zM480 1560q0 148 172 235q148 74 352 78h20q285 0 430 -137q56 -52 56 -133q0 -150 -176 -237q-151 -75 -354 -77h-12 q-289 0 -434 139q-54 52 -54 132z" />
<glyph unicode="j" horiz-adv-x="1586" d="M-116 -285l115 205h299q142 0 204 110l618 1101l786 17l-638 -1137q-166 -296 -502 -296h-882zM1172 1560q0 148 172 235q148 74 352 78h20q285 0 430 -137q56 -52 56 -133q0 -150 -176 -237q-151 -75 -354 -77h-12q-289 0 -434 139q-54 52 -54 132z" />
<glyph unicode="k" horiz-adv-x="2321" d="M0 88l794 1416l790 18l-444 -792l960 418h526l-843 -358l129 -420q24 -77 162 -77h188l-114 -205h-982l-136 443l-248 -443h-782z" />
<glyph unicode="l" horiz-adv-x="1262" d="M-8 306q0 58 35 120l605 1078l785 18l-627 -1119q-16 -28 -16 -51q0 -15 7 -28q16 -31 62 -31h3h324l-115 -205h-795q-172 0 -238 113q-30 51 -30 105z" />
<glyph unicode="m" horiz-adv-x="3360" d="M0 88l584 1043h644l2 -71q228 116 496 118h7q312 0 425 -172q174 100 334 140q124 31 266 32h8q266 0 392 -134q72 -75 72 -181q0 -88 -60 -195l-149 -265q-16 -28 -16 -51q0 -15 7 -28q16 -31 61 -31h3h218l-115 -205h-688q-203 0 -263 88q-24 36 -24 84q0 70 54 166 l213 381q10 18 10 34q0 20 -15 39q-26 32 -72 32q-120 0 -178 -106l-403 -718h-777l404 719q10 17 10 33q0 21 -16 40q-26 32 -72 32q-120 0 -178 -106l-402 -718h-782z" />
<glyph unicode="n" horiz-adv-x="2319" d="M0 88l584 1043l643 15l1 -42l2 -44q228 116 496 118h8q266 0 393 -134q71 -74 71 -181q0 -88 -60 -195l-149 -265q-16 -28 -16 -51q0 -15 7 -28q16 -31 62 -31h3h217l-114 -205h-688q-200 0 -262 88q-26 36 -26 85q0 69 54 165l214 381q10 17 10 33q0 21 -16 40 q-26 32 -72 32q-120 0 -178 -106l-402 -718h-782z" />
<glyph unicode="o" horiz-adv-x="1882" d="M0 527q0 319 376 515q322 168 720 169q292 0 519 -98q301 -131 301 -385q0 -320 -376 -515q-322 -168 -720 -168h-6q-288 0 -512 97q-302 130 -302 385zM661 296q26 -46 92 -46q128 0 195 120l265 473q21 38 21 69q0 23 -11 42q-26 44 -92 45q-65 0 -115 -31 q-46 -30 -80 -89l-265 -473q-21 -37 -21 -68q0 -23 11 -42z" />
<glyph unicode="p" horiz-adv-x="2306" d="M-145 -296l799 1427l642 15l2 -34l1 -34q147 82 387 84h11q238 0 385 -86q194 -114 194 -364q-2 -310 -358 -500q-308 -164 -690 -164q-217 0 -361 76l-227 -404zM1023 320q21 -38 79 -38q112 0 170 104q12 22 58 102l172 308q18 33 18 60q0 19 -9 36q-22 38 -80 39 q-111 0 -169 -104l-230 -410q-18 -33 -18 -61q0 -19 9 -36z" />
<glyph unicode="q" horiz-adv-x="1978" d="M0 514q0 308 353 491q300 157 686 157q214 0 361 -78l56 48l756 16l-628 -1119q-15 -27 -15 -49q0 -16 7 -29q16 -31 64 -31h324l-114 -205h-795q-171 1 -237 113q-30 51 -30 104q0 58 34 120l22 41q-52 -15 -118 -23q-60 -7 -136 -7h-11q-238 0 -385 86 q-194 115 -194 365zM764 333q22 -39 80 -39t101 26q40 26 69 78q2 4 58 102l172 308q18 32 18 59q0 20 -10 37q-22 39 -80 39h-2q-111 0 -166 -103q-20 -34 -58 -104l-173 -307q-18 -33 -18 -60q0 -19 9 -36z" />
<glyph unicode="r" horiz-adv-x="1810" d="M0 88l584 1043l650 15l-6 -91q182 148 332 154h22q260 0 262 -249q0 -122 -91 -232q-103 -122 -247 -122q-116 0 -183 60.5t-90 187.5q-47 -43 -89 -118l-362 -648h-782z" />
<glyph unicode="s" horiz-adv-x="2008" d="M0 88l122 218l788 -15h5q112 0 179 125l62 113h-594q-207 0 -283 105q-37 52 -37 116q0 47 20 101q34 93 114 159q124 102 348 138q169 28 359 32q105 2 151 2q232 0 354 -10q248 -20 330 -108q37 -41 37 -88q1 -96 -75 -152q-74 -56 -196 -56q-92 0 -160 46 q-76 52 -81 140q-1 6 -1 12q0 28 12 52q-44 42 -129 42q-124 0 -180 -98l-131 -228h512q94 0 156 -10q160 -26 198 -128q13 -34 13 -75q0 -26 -5 -56q-40 -236 -324 -320q-148 -45 -330 -53q-82 -4 -152 -4h-1082z" />
<glyph unicode="t" horiz-adv-x="1467" d="M0 943l115 205h325l200 356l786 18l-210 -374h307l-115 -205h-306l-302 -540q-16 -29 -16 -52q0 -14 6 -27q16 -31 62 -31h3h405l-114 -205h-876q-172 0 -238 113q-30 51 -30 106q0 57 34 119l290 517h-326z" />
<glyph unicode="u" horiz-adv-x="2161" d="M0 378q0 88 60 195l312 558l786 17l-404 -719q-18 -32 -18 -59q0 -20 10 -37q22 -39 80 -39t100 26q40 26 70 78l417 750h781l-418 -745q-16 -29 -16 -52q0 -14 6 -27q17 -31 63 -31h3h216l-114 -205h-862l-40 40l-38 40q-206 -104 -522 -105q-274 0 -400 133 q-72 76 -72 182z" />
<glyph unicode="v" horiz-adv-x="1340" d="M0 88l44 1044l697 16l-45 -724l660 724h362l-1078 -1060h-640z" />
<glyph unicode="w" horiz-adv-x="2623" d="M0 88l44 1044l697 16l-45 -724l660 724h700l-44 -724l660 724h362l-1078 -1060h-641l29 692l-704 -692h-640z" />
<glyph unicode="x" horiz-adv-x="2336" d="M0 88l959 484l-349 556l834 20l158 -252l498 252h526l-904 -444l211 -334q49 -77 163 -77h172l-114 -205h-891l-188 300l-611 -300h-464z" />
<glyph unicode="y" horiz-adv-x="1878" d="M-116 -285l115 205h273q188 0 195 168l44 1044l697 16l-44 -724l660 724h362l-1469 -1433h-833z" />
<glyph unicode="z" horiz-adv-x="2413" d="M0 88l115 205l1233 650h-871l115 205h2000l-114 -205l-1234 -650h1116l-115 -205h-2245z" />
<glyph unicode="{" horiz-adv-x="1390" d="M0 640l115 205q178 21 291 75q142 68 232 208q240 374 426 562q154 154 423 268q85 36 151 64l246 106l59 -173q-151 -67 -253 -247l-398 -703q-54 -95 -232 -165q-78 -30 -160 -52l-158 -41q122 -69 186 -134t64 -117q0 -21 -10 -40l-281 -494q-49 -86 -49 -164 q0 -104 80 -162l-159 -213l-251 145q-182 104 -224 238q-16 50 -16 111q0 134 75 323q1 2 15 38q5 12 19 43q38 85 38 143q0 88 -107 130q-53 20 -122 46z" />
<glyph unicode="|" horiz-adv-x="935" d="M-208 -464l1415 2520h347l-1414 -2520h-348z" />
<glyph unicode="}" horiz-adv-x="1715" d="M-298 -400q210 48 338 276l342 601q56 99 217 171q71 32 159 60l178 55q-70 42 -196 141q-44 44 -45 93q0 34 20 69l315 556q56 100 48 184q-6 80 -65 131l129 179l218 -226q122 -128 158 -244q20 -64 20 -140q0 -98 -33 -218q-26 -94 -50.5 -148.5t-24.5 -98.5 q0 -107 144 -159q58 -22 126 -37l-114 -205l-168 -28q-156 -28 -254 -117q-54 -50 -108 -139q-144 -238 -256 -388q-132 -174 -318 -286q-128 -76 -372 -166l-316 -116z" />
<glyph unicode="~" horiz-adv-x="1532" d="M0 1810q300 278 496 264q76 -6 152 -56q42 -28 126 -106q118 -110 200 -124q128 -22 298 114l125 -184q-283 -270 -486 -334q-95 -30 -165 -18t-126 46q-46 29 -126 98.5t-124 97.5q-57 36 -115 38q-59 0 -123 -69z" />
<glyph unicode="&#xa9;" horiz-adv-x="3074" d="M0 383q18 467 390 925q166 205 314 282q194 100 486 142q238 32 604 32t579 -32q265 -42 389 -142q168 -136 158 -370q-18 -466 -390 -925q-166 -205 -314 -281q-192 -100 -490 -141q-240 -33 -600 -33q-372 0 -582 32q-262 40 -386 141q-166 134 -158 370zM509 446 q-1 -143 87 -231q74 -75 241 -105q135 -24 371 -24q226 0 384 25q191 31 317 105q112 66 236 243q102 146 168 299q78 180 93 355q2 21 2 43q0 278 -330 338q-136 24 -368 24t-387 -25q-190 -30 -316 -105q-111 -66 -235 -244q-101 -144 -168 -298q-78 -180 -93 -356 q-2 -22 -2 -44zM698 708q0 280 315 460q273 156 599 156q220 0 340 -33q224 -62 224 -237q0 -108 -67 -184q-74 -84 -195 -84q-105 0 -170 72q-64 70 -64 174q0 46 12 86q-17 20 -61 20q-49 0 -91 -34q-33 -26 -55 -68l-209 -402q-26 -48 -8 -87q18 -41 70 -39l684 14 l-102 -196h-696q-208 0 -354 86q-172 103 -172 296z" />
<glyph unicode="&#xac;" />
<glyph unicode="&#xad;" horiz-adv-x="2000" d="M0 747l115 205h1791l-115 -205h-1791z" />
<glyph unicode="&#xae;" horiz-adv-x="3074" d="M0 383q18 467 390 925q166 205 314 282q194 100 486 142q238 32 604 32t579 -32q265 -42 389 -142q168 -136 158 -370q-18 -466 -390 -925q-166 -205 -314 -281q-192 -100 -490 -141q-240 -33 -600 -33q-372 0 -582 32q-262 40 -386 141q-166 134 -158 370zM509 446 q-1 -143 87 -231q74 -75 241 -105q135 -24 371 -24q226 0 384 25q191 31 317 105q112 66 236 242q102 146 168 300q78 180 93 355q2 21 2 43q0 278 -330 338q-136 24 -368 24t-387 -25q-190 -30 -316 -105q-111 -66 -235 -244q-101 -144 -168 -298q-78 -180 -93 -356 q-2 -22 -2 -44zM592 322l534 954h646q142 0 258 -54q150 -70 148 -194q-1 -146 -130 -250q-102 -82 -264 -124l88 -144q32 -52 108 -51h72l-77 -137h-471l-172 294h-95l-165 -294h-480zM1314 754h139q104 0 159 97l88 157q30 52 8 90q-20 36 -75 36h-105z" />
<glyph unicode="&#xb0;" horiz-adv-x="1002" d="M0 1768q0 180 160 284q137 90 326 94q158 4 293 -64q176 -90 176 -262q-1 -180 -163 -285q-138 -91 -328 -93q-158 -2 -290 66q-174 90 -174 260zM326 1784q0 -72 56 -109q44 -30 92 -28q60 2 103 39q51 44 51 120q0 72 -55 110q-43 28 -93 26q-60 -2 -103 -39 q-51 -44 -51 -119z" />
<glyph unicode="&#xb4;" />
<glyph unicode="&#xb7;" horiz-adv-x="879" d="M0 788q0 118 132 186q113 58 269 60q133 2 243 -42q146 -58 145 -170q-1 -118 -135 -186q-115 -59 -271 -61q-229 -1 -341 109q-42 42 -42 104z" />
<glyph unicode="&#xba;" horiz-adv-x="1676" d="M0 770q0 236 268 375q228 118 544 124q266 5 490 -85q294 -118 294 -346q0 -238 -271 -377q-231 -119 -549 -123q-262 -3 -485 88q-291 118 -291 344z" />
<glyph unicode="&#xcd;" />
<glyph unicode="&#xe1;" />
<glyph unicode="&#xee;" />
<glyph unicode="&#xef;" />
<glyph unicode="&#xf1;" />
<glyph unicode="&#xfb;" />
<glyph unicode="&#x2000;" horiz-adv-x="1080" />
<glyph unicode="&#x2001;" horiz-adv-x="2160" />
<glyph unicode="&#x2002;" horiz-adv-x="1080" />
<glyph unicode="&#x2003;" horiz-adv-x="2160" />
<glyph unicode="&#x2004;" horiz-adv-x="720" />
<glyph unicode="&#x2005;" horiz-adv-x="540" />
<glyph unicode="&#x2006;" horiz-adv-x="360" />
<glyph unicode="&#x2007;" horiz-adv-x="360" />
<glyph unicode="&#x2008;" horiz-adv-x="270" />
<glyph unicode="&#x2009;" horiz-adv-x="432" />
<glyph unicode="&#x200a;" horiz-adv-x="120" />
<glyph unicode="&#x2010;" horiz-adv-x="2000" d="M0 747l115 205h1791l-115 -205h-1791z" />
<glyph unicode="&#x2011;" horiz-adv-x="2000" d="M0 747l115 205h1791l-115 -205h-1791z" />
<glyph unicode="&#x2012;" horiz-adv-x="2000" d="M0 747l115 205h1791l-115 -205h-1791z" />
<glyph unicode="&#x2013;" horiz-adv-x="1118" d="M0 747l62 205h962l-62 -205h-962z" />
<glyph unicode="&#x2014;" horiz-adv-x="2142" d="M0 747l124 205h1924l-124 -205h-1924z" />
<glyph unicode="&#x2018;" horiz-adv-x="864" d="M0 1468q8 210 244 404q196 164 384 204l54 -169q-102 -51 -184 -145q118 -16 191 -70q85 -62 85 -160q0 -10 -2 -22q-14 -142 -150 -226q-116 -72 -268 -74q-126 -2 -228 52q-132 70 -126 206z" />
<glyph unicode="&#x2019;" horiz-adv-x="856" d="M0 1748q0 12 2 26q16 140 153 224q117 70 270 75q43 1 109 -11q140 -26 209 -120q35 -50 31 -127q-14 -210 -250 -404q-198 -161 -387 -203l-51 168q98 50 186 145q-116 17 -190 71q-82 62 -82 156z" />
<glyph unicode="&#x201c;" horiz-adv-x="1706" d="M0 1468q8 210 244 404q196 164 384 204l54 -169q-102 -51 -184 -145q118 -16 191 -70q85 -62 85 -160q0 -10 -2 -22q-14 -142 -150 -226q-116 -72 -268 -74q-126 -2 -228 52q-132 70 -126 206zM881 1468q9 211 243 404q197 164 385 204l53 -169q-98 -48 -184 -145 q120 -16 192 -70q84 -62 84 -160q0 -10 -1 -22q-14 -142 -150 -226q-118 -72 -269 -74q-50 -1 -110 10.5t-117 41.5q-132 70 -126 206z" />
<glyph unicode="&#x201d;" horiz-adv-x="1706" d="M0 1748q0 12 2 26q16 140 153 224q117 70 270 75q43 1 109 -11q140 -26 209 -120q35 -50 31 -127q-14 -210 -250 -404q-198 -161 -387 -203l-51 168q98 50 186 145q-116 17 -190 71q-82 62 -82 156zM880 1748q0 13 2 26q16 140 154 224q118 70 270 75q44 1 109 -11 q64 -12 117 -40q131 -70 123 -207q-13 -210 -251 -404q-198 -161 -386 -203l-52 168q96 48 187 145q-116 17 -190 71q-83 60 -83 156z" />
<glyph unicode="&#x202f;" horiz-adv-x="432" />
<glyph unicode="&#x205f;" horiz-adv-x="540" />
<glyph unicode="&#xe000;" horiz-adv-x="1147" d="M0 0v1148h1148v-1148h-1148z" />
</font>
</defs>
</svg>
